<svg width="17" height="19" viewBox="0 0 17 19" fill="none" xmlns="http://www.w3.org/2000/svg">
<g opacity="0.6">
<path d="M14.2615 18.7755H2.63549C2.31783 18.7754 2.00379 18.7081 1.71402 18.5779C1.42424 18.4478 1.16529 18.2578 0.954181 18.0205C0.743076 17.7831 0.5846 17.5037 0.48917 17.2007C0.393741 16.8978 0.363519 16.578 0.400493 16.2625L1.54749 6.51251C1.61199 5.96451 1.87561 5.45931 2.28823 5.09297C2.70085 4.72662 3.23371 4.52467 3.78549 4.52551H4.70149C4.70149 3.53095 5.09658 2.57712 5.79984 1.87386C6.5031 1.1706 7.45693 0.775513 8.45149 0.775513C9.44605 0.775513 10.3999 1.1706 11.1031 1.87386C11.8064 2.57712 12.2015 3.53095 12.2015 4.52551H13.1175C13.6686 4.52584 14.2005 4.72828 14.6124 5.09447C15.0243 5.46067 15.2876 5.9652 15.3525 6.51251L16.4995 16.2625C16.5365 16.5783 16.5062 16.8983 16.4106 17.2015C16.315 17.5047 16.1562 17.7842 15.9448 18.0216C15.7334 18.259 15.4741 18.4489 15.1839 18.5789C14.8938 18.7088 14.5794 18.7758 14.2615 18.7755ZM3.78549 6.02551C3.60211 6.02568 3.42515 6.09303 3.28806 6.21483C3.15097 6.33663 3.06325 6.50443 3.04149 6.68651L1.88549 16.4355C1.87276 16.5409 1.88253 16.6477 1.91415 16.749C1.94578 16.8503 1.99855 16.9438 2.06896 17.0232C2.13938 17.1026 2.22584 17.1661 2.32264 17.2096C2.41944 17.2531 2.52437 17.2756 2.63049 17.2755H14.2615C14.3676 17.2756 14.4725 17.2531 14.5693 17.2096C14.6661 17.1661 14.7526 17.1026 14.823 17.0232C14.8934 16.9438 14.9462 16.8503 14.9778 16.749C15.0095 16.6477 15.0192 16.5409 15.0065 16.4355L13.8605 6.68551C13.8385 6.50334 13.7506 6.33553 13.6133 6.21375C13.4761 6.09197 13.299 6.02466 13.1155 6.02451H12.1995V6.77551C12.1995 6.97442 12.1205 7.16519 11.9798 7.30584C11.8392 7.4465 11.6484 7.52551 11.4495 7.52551C11.2506 7.52551 11.0598 7.4465 10.9192 7.30584C10.7785 7.16519 10.6995 6.97442 10.6995 6.77551V6.02551H6.19949V6.77551C6.19949 6.97442 6.12047 7.16519 5.97982 7.30584C5.83917 7.4465 5.6484 7.52551 5.44949 7.52551C5.25058 7.52551 5.05981 7.4465 4.91916 7.30584C4.77851 7.16519 4.69949 6.97442 4.69949 6.77551V6.02551H3.78549ZM8.44849 2.27551C7.852 2.27631 7.28016 2.51361 6.85838 2.9354C6.43659 3.35718 6.19929 3.92902 6.19849 4.52551H10.6985C10.6977 3.92902 10.4604 3.35718 10.0386 2.9354C9.61682 2.51361 9.04499 2.27631 8.44849 2.27551Z" fill="#8182E8"/>
</g>
</svg>
