<svg width="13" height="18" viewBox="0 0 13 18" fill="none" xmlns="http://www.w3.org/2000/svg">
<path opacity="0.6" d="M4.18349 18C3.94166 17.9989 3.70324 17.9428 3.48632 17.8359C3.26939 17.729 3.07965 17.5741 2.93149 17.383C2.78982 17.1992 2.69314 16.9849 2.64921 16.757C2.60527 16.5292 2.6153 16.2943 2.67849 16.071L4.00349 11L1.81049 10.118C1.58192 10.0264 1.37873 9.8812 1.21808 9.69459C1.05742 9.50798 0.944022 9.28546 0.887444 9.04581C0.830866 8.80616 0.832771 8.55642 0.892999 8.31766C0.953226 8.0789 1.07001 7.85814 1.23349 7.674L7.59149 0.522C7.73106 0.359682 7.90375 0.229117 8.09797 0.139081C8.29218 0.0490446 8.50342 0.00162202 8.71749 0C8.95915 0.00121553 9.19737 0.0573987 9.41411 0.164296C9.63085 0.271192 9.82043 0.426001 9.96849 0.617C10.1101 0.800791 10.2067 1.01517 10.2507 1.24298C10.2946 1.4708 10.2846 1.70573 10.2215 1.929L8.89649 7L11.0895 7.878C11.3181 7.96958 11.5212 8.1148 11.6819 8.30141C11.8426 8.48802 11.956 8.71054 12.0125 8.95019C12.0691 9.18984 12.0672 9.43958 12.007 9.67834C11.9468 9.9171 11.83 10.1379 11.6665 10.322L5.30949 17.478C5.16992 17.6403 4.99723 17.7709 4.80301 17.8609C4.60879 17.951 4.39755 17.9984 4.18349 18ZM8.73649 1.542L2.38049 8.693L5.82949 10.073L4.16349 16.458L10.5205 9.307L7.07149 7.927L8.73649 1.542Z" fill="#8385EA"/>
</svg>
