<svg width="33" height="33" viewBox="0 0 33 33" fill="none" xmlns="http://www.w3.org/2000/svg">
<path d="M8.87346 28.3313L5.58484 31.6193C4.48355 32.7206 2.72839 32.7515 1.66467 31.6878L0.80889 30.832C-0.254251 29.7685 -0.223119 28.0134 0.87818 26.9121L4.16621 23.6235L8.87346 28.3313ZM29.2921 18.5325C25.881 21.9435 20.7625 22.6036 16.6892 20.5164L10.6018 26.6032L5.89458 21.896L11.9819 15.8086C9.89504 11.7346 10.5548 6.61653 13.9659 3.20571C18.198 -1.02666 25.0599 -1.02666 29.2925 3.20571C33.5249 7.43749 33.5249 14.2998 29.2922 18.5323L29.2921 18.5325ZM26.368 6.12869C23.7506 3.51124 19.5063 3.51124 16.8885 6.12898C14.2711 8.74643 14.2711 12.9907 16.8885 15.6085C19.5065 18.2265 23.7508 18.2265 26.368 15.6088C28.9858 12.9907 28.9858 8.74678 26.3677 6.12854L26.368 6.12869Z" fill="#F6F6F6"/>
</svg>
