<svg width="27" height="41" viewBox="0 0 27 41" fill="none" xmlns="http://www.w3.org/2000/svg">
<path d="M20.2716 0.429569H6.23165C4.65216 0.430757 3.13778 1.04891 2.02112 2.14833C0.904453 3.24771 0.276565 4.73856 0.27533 6.29367V35.021C0.276536 36.5761 0.904414 38.067 2.02112 39.1664C3.13778 40.2658 4.65208 40.8839 6.23165 40.8851H20.2716C21.8511 40.8839 23.3655 40.2658 24.4822 39.1664C25.5988 38.067 26.2267 36.5761 26.228 35.021V6.29367C26.2267 4.73864 25.5989 3.24771 24.4822 2.14833C23.3655 1.04895 21.8512 0.430786 20.2716 0.429569V0.429569ZM17.3606 35.988H9.14222C8.54481 35.988 8.06085 35.5113 8.06085 34.9234C8.06085 34.3352 8.54481 33.8588 9.14222 33.8588H17.3606C17.958 33.8588 18.442 34.3352 18.442 34.9234C18.442 35.5113 17.958 35.988 17.3606 35.988Z" fill="#F6F6F6"/>
<path d="M8.97553 24.1152L12.1991 13.7952H13.6137L13.3354 15.8476L10.0539 26.3415H8.67405L8.97553 24.1152ZM6.80718 13.7952L9.5553 24.2311L9.75243 26.3415H8.30299L4.66202 13.7952H6.80718ZM16.6981 24.15L19.3187 13.7952H21.4522L17.8113 26.3415H16.3734L16.6981 24.15ZM13.9268 13.7952L17.0808 23.9413L17.4402 26.3415H16.072L12.6977 15.8244L12.4194 13.7952H13.9268Z" fill="url(#paint0_linear_1_27)"/>
<defs>
<linearGradient id="paint0_linear_1_27" x1="4.09192" y1="32.3415" x2="29.5648" y2="15.9661" gradientUnits="userSpaceOnUse">
<stop stop-color="#EA719F"/>
<stop offset="1" stop-color="#D187A3"/>
</linearGradient>
</defs>
</svg>
